<?xml version="1.0" encoding="utf-8"?>
<!DOCTYPE svg PUBLIC "-//W3C//DTD SVG 1.0//EN" "http://www.w3.org/TR/2001/REC-SVG-20010904/DTD/svg10.dtd">
<svg version="1.0" xmlns="http://www.w3.org/2000/svg" width="428px" height="436px" viewBox="0 0 428 436" preserveAspectRatio="xMidYMid meet">
 <g fill="none" stroke="#f9faf8" stroke-width="0.5">
  <path d="M 0 218 l 0 -218 214 0 214 0 0 218 0 218 -214 0 -214 0 0 -218 z  m 249.85 73.40 c 0.30 -0.35 0.80 -1.50 1.10 -2.50 l 0.65 -1.90 3.90 0 c 4.25 0 4.65 0.20 5.35 3 0.35 1.40 0.75 1.80 1.85 1.90 l 1.45 0.20 -0.30 -1.20 c -0.35 -1.65 -3.15 -10.90 -4.80 -15.90 l -1.40 -4.25 -1.75 -0.15 -1.80 -0.15 -1.25 3.90 c -4.30 13.20 -5.35 16.75 -5.10 17.15 0.45 0.70 1.55 0.60 2.10 -0.10 z  m 30.40 -0.65 c 1.15 -0.85 1.80 -1.90 2.20 -3.50 0.65 -2.55 0.45 -3.25 -0.95 -3.25 -0.70 0 -1.10 0.55 -1.50 2 -0.60 2.30 -2.10 3.50 -4.25 3.50 -2.75 0 -3.70 -0.55 -4.75 -2.70 -1.15 -2.45 -1.35 -7.90 -0.35 -10.75 0.75 -2.15 3.60 -3.80 5.85 -3.30 1.75 0.40 3.50 2.40 3.50 4 0 1.25 1.05 1.90 2.30 1.40 0.95 -0.35 0.60 -3.15 -0.60 -5 -1.75 -2.80 -6.85 -3.60 -10.55 -1.70 -2.70 1.35 -3.90 4.30 -3.90 9.55 0 4.50 1.15 7.90 3.30 9.75 1.30 1.05 2.05 1.25 4.80 1.25 2.75 0 3.60 -0.20 4.90 -1.25 z  m 8.80 -0.60 c 0.95 -3 1.20 -3.15 5.50 -3.15 l 3.95 0 0.30 1.40 c 0.50 2.10 1.60 3.60 2.70 3.60 1.35 0 1.30 -0.50 -1 -7.60 -1.05 -3.35 -2.50 -7.85 -3.15 -9.90 l -1.20 -3.75 -1.75 -0.15 -1.80 -0.15 -1.30 4.15 c -0.70 2.30 -2.15 6.95 -3.25 10.35 -1.10 3.45 -1.90 6.40 -1.75 6.65 0.15 0.20 0.70 0.40 1.20 0.40 0.65 0 1.10 -0.60 1.55 -1.85 z  m 27.95 0.75 c 0.90 -0.65 2.10 -1.70 2.60 -2.40 2.15 -2.95 2.10 -11.90 -0.10 -15 -1.55 -2.20 -3.95 -3 -8.80 -3 l -4.20 0 0 10.40 c 0 5.75 0.15 10.60 0.35 10.75 0.15 0.20 2.15 0.35 4.40 0.35 3.45 0 4.35 -0.20 5.75 -1.10 z  m 22.90 -0.25 l -0.15 -1.40 -5.10 0.15 -5.15 0.20 0 -3.30 c 0 -1.80 0 -3.45 0 -3.65 0 -0.25 1.95 -0.50 4.35 -0.65 3.65 -0.20 4.40 -0.40 4.55 -1.10 l 0.15 -0.90 -4.50 0 -4.55 0 -0.05 -2.50 c -0.05 -1.35 -0.10 -2.90 -0.15 -3.35 l -0.05 -0.90 5.25 -0.25 5.25 -0.25 0 -1 0 -1 -6.60 -0.15 -6.65 -0.15 0 10.80 0 10.75 6.80 0 6.75 0 -0.15 -1.35 z  m 7.60 -6.90 l 0.25 -8 2.25 8 2.25 8 1.25 0 1.25 0 1.60 -6 c 0.90 -3.30 1.90 -7 2.25 -8.25 l 0.65 -2.25 0.15 8.40 0.10 8.40 1.40 -0.15 1.35 -0.15 0 -10.50 0 -10.50 -2.05 -0.15 -2.05 -0.15 -0.85 3.15 c -0.45 1.75 -1.45 5.65 -2.25 8.65 l -1.45 5.50 -0.35 -1.50 c -0.20 -0.80 -1.20 -4.65 -2.20 -8.50 l -1.85 -7 -2.10 -0.15 -2.10 -0.15 0 10.80 0 10.80 1.15 -0.15 1.10 -0.15 0.25 -8 z  m 28 3.95 l 0 -4.30 2.35 -4.30 c 1.30 -2.40 2.85 -5.20 3.50 -6.20 1.45 -2.35 1.45 -2.50 -0.20 -2.30 -1.10 0.10 -1.75 0.90 -3.85 4.80 -1.40 2.50 -2.65 4.60 -2.80 4.60 -0.30 0 -4.05 -6.75 -4.65 -8.35 -0.30 -0.85 -0.85 -1.15 -1.90 -1.15 -1.45 0 -1.90 0.80 -1 1.80 0.25 0.25 1.70 2.85 3.25 5.75 l 2.80 5.35 0 4.30 0 4.30 1.25 0 1.25 0 0 -4.30 z  m -168.50 -10.65 c 5.55 -2.10 10.15 -7.05 12.25 -13.20 l 0.95 -2.85 42.90 0 42.85 0 0.15 -21.15 0.15 -21.20 1.35 -1.75 c 1.95 -2.55 4.30 -3.25 7.15 -2.15 1.45 0.50 2.55 1.40 3.25 2.45 l 1 1.65 0 21.10 0 21.05 31.90 -0.10 31.85 -0.15 0 -6.65 0 -6.65 -25 -0.10 -25 -0.10 -0.25 -15.75 -0.25 -15.75 -1.15 -2.80 c -1.55 -3.85 -3.55 -6.55 -6.35 -8.45 -4.60 -3.15 -10.10 -4.30 -16.10 -3.35 l -2.65 0.45 0 -9.25 c 0 -5.10 -0.15 -9.40 -0.35 -9.50 -1 -0.60 -2.75 0.85 -3.90 3.20 -1.60 3.15 -5.05 6.55 -8.65 8.60 l -2.70 1.50 1.15 0.90 1.20 0.90 0.15 15.65 c 0.10 8.60 0.05 19.75 -0.15 24.80 l -0.35 9.15 -7.35 -0.15 -7.30 -0.15 -0.15 -32.10 -0.10 -32.10 -1.05 -0.30 c -1.10 -0.35 -2.45 0.50 -2.45 1.50 0 2.35 -9.10 11.25 -11.55 11.25 -0.50 0 -0.95 0.25 -0.95 0.50 0 0.30 0.30 0.50 0.65 0.50 0.70 0 1.85 2 1.85 3.25 0 0.40 -0.60 0.85 -1.35 1 -3.25 0.70 -8.10 2.45 -10.65 3.90 -5.80 3.25 -12.20 10.95 -14.50 17.40 -1.35 4 -2 9.60 -2 18 l 0 7.45 -7.60 0 c -4.20 0 -7.85 -0.20 -8.15 -0.40 -0.25 -0.20 -1.35 -1.40 -2.35 -2.65 -2.40 -2.95 -5.25 -4.85 -10.50 -6.95 -9.65 -3.85 -13.40 -7.90 -13.40 -14.40 0 -3.70 1.40 -6.60 3.95 -8 2.25 -1.30 3.45 -1.35 5.80 -0.40 3 1.25 3.75 3.20 3.75 9.70 l 0 5.60 6.75 0 6.75 0 0 -4.85 c 0 -9.20 -1.60 -14.35 -5.85 -18.85 -2.35 -2.50 -7.85 -5.10 -11.60 -5.55 -7.85 -0.90 -17.05 4.20 -20.50 11.40 -2.50 5.30 -3.05 12.95 -1.20 18.30 2.40 7.05 9.95 14.25 17.40 16.55 3.80 1.20 6.70 2.95 7.55 4.60 1.05 2.05 0.75 8.20 -0.50 10.15 -2.40 3.70 -6.65 4.15 -9.75 1.05 l -1.80 -1.80 -0.15 -6.50 c -0.10 -3.60 -0.20 -6.55 -0.25 -6.60 -0.05 -0.05 -6.50 -0.25 -14.35 -0.40 l -14.25 -0.25 -0.25 -16.25 -0.25 -16.25 -1.40 -2.80 c -4.40 -9 -13.20 -12.85 -24.25 -10.65 l -1.60 0.35 0 -20.55 0 -20.50 -0.75 -0.30 -0.80 -0.30 0.05 -10.75 c 0.05 -5.90 -0.10 -11 -0.25 -11.30 -0.20 -0.30 -0.85 -0.40 -1.50 -0.25 -0.80 0.20 -1.25 0.05 -1.45 -0.50 -0.15 -0.45 -0.30 -11.90 -0.30 -25.50 l 0 -24.70 -1 0 -1 0 -0.10 13.90 -0.15 13.85 -1.10 0.15 -1.15 0.15 -0.10 22.60 -0.15 22.60 -1.85 0.15 -1.90 0.15 -0.10 43.35 -0.15 43.35 -7.25 0 -7.25 0 -0.15 -58.35 -0.10 -58.40 -1.50 0 -1.45 0 -1.30 2.70 c -1.60 3.40 -6.75 8.35 -10 9.60 l -2.35 0.85 1.30 0.70 c 0.70 0.35 1.40 1.20 1.55 1.80 0.15 0.60 0.20 23.60 0.15 51.10 l -0.15 50 -25 0.10 -25 0.05 0 6.70 0 6.65 46.15 0.15 46.10 0.10 0 -20.45 c 0 -11.25 0.20 -21 0.45 -21.65 0.70 -1.80 3 -3.85 5.10 -4.45 2.55 -0.80 5.95 0.45 7.55 2.70 l 1.15 1.60 0.15 21.15 0.15 21.10 14.25 0 c 10.95 0 14.25 0.15 14.40 0.65 1.80 6.30 2.90 8.40 6.25 11.50 1.30 1.25 3.35 2.75 4.50 3.30 4 2.05 10.90 2.30 15.55 0.60 z "/>
  <path d="M 252.75 283.15 c 0.15 -0.80 0.90 -3.30 1.60 -5.60 l 1.30 -4.20 1.65 5.20 c 0.95 2.85 1.70 5.35 1.70 5.60 0 0.20 -1.50 0.35 -3.30 0.35 l -3.30 0 0.35 -1.35 z "/>
  <path d="M 291 284.05 c 0 -1 3.15 -10.05 3.40 -9.80 0.25 0.25 1.70 4.80 2.90 9.15 l 0.30 1.10 -3.30 0 c -1.80 0 -3.30 -0.20 -3.30 -0.45 z "/>
  <path d="M 309.90 289.20 c -0.25 -0.20 -0.40 -3.95 -0.40 -8.30 l 0 -7.90 2.25 0 c 1.20 0 2.80 0.25 3.50 0.60 3.75 1.70 4.45 11.15 1.10 14.35 -1.25 1.10 -5.75 2 -6.45 1.25 z "/>
  <path d="M 251.15 247.15 l -1.65 -0.20 0 -9.85 0 -9.85 1.25 -2.70 c 1.50 -3.25 3.60 -5.70 6.70 -7.95 2.25 -1.65 3.10 -2.10 5.45 -2.80 l 1.10 -0.35 -0.10 16.90 -0.15 16.90 -5.50 0.05 c -3 0 -6.25 -0.05 -7.10 -0.15 z "/>
 </g>
 <g fill="#ae7c1e">
  <path d="M 247.75 291.50 c -0.25 -0.40 0.80 -3.95 5.10 -17.15 l 1.25 -3.90 1.80 0.15 1.75 0.15 1.40 4.25 c 1.65 5 4.45 14.25 4.80 15.90 l 0.30 1.20 -1.45 -0.20 c -1.10 -0.10 -1.50 -0.50 -1.85 -1.90 -0.70 -2.80 -1.10 -3 -5.35 -3 l -3.90 0 -0.65 1.90 c -0.30 1 -0.80 2.15 -1.10 2.50 -0.55 0.70 -1.65 0.80 -2.10 0.10 z  m 11.25 -7.35 c 0 -0.25 -0.75 -2.75 -1.70 -5.60 l -1.65 -5.20 -1.30 4.20 c -0.70 2.30 -1.45 4.80 -1.60 5.60 l -0.35 1.35 3.30 0 c 1.80 0 3.30 -0.15 3.30 -0.35 z "/>
  <path d="M 270.55 290.75 c -2.15 -1.85 -3.30 -5.25 -3.30 -9.75 0 -5.25 1.20 -8.20 3.90 -9.55 3.70 -1.90 8.80 -1.10 10.55 1.70 1.20 1.85 1.55 4.65 0.60 5 -1.25 0.50 -2.30 -0.15 -2.30 -1.40 0 -1.60 -1.75 -3.60 -3.50 -4 -2.25 -0.50 -5.10 1.15 -5.85 3.30 -1 2.85 -0.80 8.30 0.35 10.75 1.05 2.15 2 2.70 4.75 2.70 2.15 0 3.65 -1.20 4.25 -3.50 0.40 -1.45 0.80 -2 1.50 -2 1.40 0 1.60 0.70 0.95 3.25 -0.85 3.40 -2.85 4.75 -7.10 4.75 -2.75 0 -3.50 -0.20 -4.80 -1.25 z "/>
  <path d="M 286.30 291.60 c -0.15 -0.25 0.65 -3.20 1.75 -6.65 1.10 -3.40 2.55 -8.05 3.25 -10.35 l 1.30 -4.15 1.80 0.15 1.75 0.15 1.20 3.75 c 0.65 2.05 2.10 6.55 3.15 9.90 2.30 7.10 2.35 7.60 1 7.60 -1.10 0 -2.20 -1.50 -2.70 -3.60 l -0.30 -1.40 -3.95 0 c -4.30 0 -4.55 0.15 -5.50 3.15 -0.45 1.25 -0.90 1.85 -1.55 1.85 -0.50 0 -1.05 -0.20 -1.20 -0.40 z  m 11 -8.20 c -1.20 -4.35 -2.65 -8.90 -2.90 -9.15 -0.25 -0.25 -3.40 8.80 -3.40 9.80 0 0.25 1.50 0.45 3.30 0.45 l 3.30 0 -0.30 -1.10 z "/>
  <path d="M 306.85 291.65 c -0.20 -0.15 -0.35 -5 -0.35 -10.75 l 0 -10.40 4.20 0 c 4.85 0 7.25 0.80 8.80 3 2.20 3.10 2.25 12.05 0.10 15 -2 2.70 -3.90 3.50 -8.35 3.50 -2.25 0 -4.25 -0.15 -4.40 -0.35 z  m 9.50 -3.70 c 3.35 -3.20 2.65 -12.65 -1.10 -14.35 -0.70 -0.35 -2.30 -0.60 -3.50 -0.60 l -2.25 0 0 7.90 c 0 4.35 0.15 8.10 0.40 8.30 0.70 0.75 5.20 -0.15 6.45 -1.25 z "/>
  <path d="M 326.50 281.25 l 0 -10.80 6.65 0.15 6.60 0.15 0 1 0 1 -5.25 0.25 -5.25 0.25 0.05 0.90 c 0.05 0.45 0.10 2 0.15 3.35 l 0.05 2.50 4.55 0 4.50 0 -0.15 0.90 c -0.15 0.70 -0.90 0.90 -4.55 1.10 -2.40 0.15 -4.35 0.40 -4.35 0.65 0 0.20 0 1.85 0 3.65 l 0 3.30 5.15 -0.20 5.10 -0.15 0.15 1.40 0.15 1.35 -6.75 0 -6.80 0 0 -10.75 z "/>
  <path d="M 345 281.25 l 0 -10.80 2.10 0.15 2.10 0.15 1.85 7 c 1 3.85 2 7.70 2.20 8.50 l 0.35 1.50 1.45 -5.50 c 0.80 -3 1.80 -6.90 2.25 -8.65 l 0.85 -3.15 2.05 0.15 2.05 0.15 0 10.50 0 10.50 -1.35 0.15 -1.40 0.15 -0.10 -8.40 -0.15 -8.40 -0.65 2.25 c -0.35 1.25 -1.35 4.95 -2.25 8.25 l -1.60 6 -1.25 0 -1.25 0 -2.25 -8 -2.25 -8 -0.25 8 -0.25 8 -1.10 0.15 -1.15 0.15 0 -10.80 z "/>
  <path d="M 373 287.70 l 0 -4.30 -2.80 -5.35 c -1.55 -2.90 -3 -5.50 -3.25 -5.80 -0.90 -0.95 -0.45 -1.75 1 -1.75 1.05 0 1.60 0.30 1.90 1.15 0.60 1.60 4.35 8.35 4.65 8.35 0.15 0 1.40 -2.10 2.80 -4.60 2.10 -3.90 2.75 -4.70 3.85 -4.80 1.65 -0.20 1.65 -0.05 0.20 2.30 -0.65 1 -2.20 3.80 -3.50 6.20 l -2.35 4.30 0 4.30 0 4.30 -1.25 0 -1.25 0 0 -4.30 z "/>
  <path d="M 196.40 277.95 c -3.60 -0.50 -6.40 -1.95 -9.45 -4.80 -3.35 -3.10 -4.45 -5.20 -6.25 -11.50 -0.15 -0.50 -3.45 -0.65 -14.40 -0.65 l -14.25 0 -0.15 -21.10 -0.15 -21.15 -1.15 -1.60 c -1.60 -2.25 -5 -3.50 -7.55 -2.70 -2.10 0.60 -4.40 2.65 -5.10 4.45 -0.25 0.65 -0.45 10.40 -0.45 21.65 l 0 20.45 -46.10 -0.10 -46.15 -0.15 0 -6.65 0 -6.70 25 -0.05 25 -0.10 0.15 -50 c 0.05 -27.50 0 -50.50 -0.15 -51.10 -0.15 -0.60 -0.85 -1.45 -1.55 -1.80 l -1.30 -0.70 2.35 -0.85 c 3.25 -1.25 8.40 -6.20 10 -9.60 l 1.30 -2.70 1.45 0 1.50 0 0.10 58.40 0.15 58.35 7.25 0 7.25 0 0.15 -43.35 0.10 -43.35 1.90 -0.15 1.85 -0.15 0.15 -22.60 0.10 -22.60 1.15 -0.15 1.10 -0.15 0.15 -13.85 0.10 -13.90 1 0 1 0 0 24.70 c 0 13.60 0.15 25.05 0.30 25.50 0.20 0.55 0.65 0.70 1.45 0.50 0.65 -0.15 1.30 -0.05 1.50 0.25 0.15 0.30 0.30 5.40 0.25 11.30 l -0.05 10.75 0.80 0.30 0.75 0.30 0 20.50 0 20.55 1.60 -0.35 c 6.20 -1.25 10.75 -0.75 15.75 1.70 3.60 1.80 6.50 4.80 8.50 8.95 l 1.40 2.80 0.25 16.25 0.25 16.25 14.25 0.25 c 7.85 0.15 14.30 0.35 14.35 0.40 0.05 0.05 0.15 3 0.25 6.60 l 0.15 6.50 1.80 1.80 c 3.10 3.10 7.35 2.65 9.75 -1.05 1.25 -1.95 1.55 -8.10 0.50 -10.15 -0.85 -1.65 -3.75 -3.40 -7.55 -4.60 -7.45 -2.30 -15 -9.50 -17.40 -16.55 -1.85 -5.35 -1.30 -13 1.20 -18.30 3.45 -7.20 12.65 -12.30 20.50 -11.40 3.75 0.45 9.25 3.05 11.60 5.55 4.25 4.50 5.85 9.65 5.85 18.85 l 0 4.85 -6.75 0 -6.75 0 0 -5.60 c 0 -6.50 -0.75 -8.45 -3.75 -9.70 -2.35 -0.95 -3.55 -0.90 -5.80 0.40 -2.55 1.40 -3.95 4.30 -3.95 8 0 6.50 3.75 10.55 13.40 14.40 5.25 2.10 8.10 4 10.50 6.95 1 1.25 2.10 2.45 2.35 2.65 0.30 0.20 3.95 0.40 8.15 0.40 l 7.60 0 0 -7.45 c 0 -8.40 0.65 -14 2 -18 2.30 -6.45 8.70 -14.15 14.50 -17.40 2.55 -1.45 7.40 -3.20 10.65 -3.90 0.75 -0.15 1.35 -0.60 1.35 -1 0 -1.25 -1.15 -3.25 -1.85 -3.25 -0.35 0 -0.65 -0.20 -0.65 -0.50 0 -0.25 0.45 -0.50 0.95 -0.50 2.45 0 11.55 -8.90 11.55 -11.25 0 -1 1.35 -1.85 2.45 -1.50 l 1.05 0.30 0.10 32.10 0.15 32.10 7.30 0.15 7.35 0.15 0.35 -9.15 c 0.20 -5.05 0.25 -16.20 0.15 -24.80 l -0.15 -15.65 -1.20 -0.90 -1.15 -0.90 2.70 -1.50 c 3.60 -2.05 7.05 -5.45 8.65 -8.60 1.15 -2.35 2.90 -3.80 3.90 -3.20 0.20 0.10 0.35 4.40 0.35 9.50 l 0 9.25 2.65 -0.45 c 6 -0.95 11.50 0.20 16.10 3.35 2.80 1.90 4.80 4.60 6.35 8.45 l 1.15 2.80 0.25 15.75 0.25 15.75 25 0.10 25 0.10 0 6.65 0 6.65 -31.85 0.15 -31.90 0.10 0 -21.05 0 -21.10 -1 -1.65 c -0.70 -1.05 -1.80 -1.95 -3.25 -2.45 -2.85 -1.10 -5.20 -0.40 -7.15 2.15 l -1.35 1.75 -0.15 21.20 -0.15 21.15 -42.85 0 -42.90 0 -0.95 2.85 c -3.45 10.10 -12.35 15.60 -22.85 14.10 z  m 67.50 -47.60 l 0.10 -16.90 -1.10 0.35 c -2.35 0.70 -3.20 1.15 -5.45 2.80 -3.10 2.25 -5.20 4.70 -6.70 7.95 l -1.25 2.70 0 9.85 0 9.85 1.65 0.20 c 0.85 0.10 4.10 0.15 7.10 0.15 l 5.50 -0.05 0.15 -16.90 z "/>
 </g>
</svg>