<svg width="15" height="24" viewBox="0 0 15 24" fill="none" xmlns="http://www.w3.org/2000/svg">
<path d="M3.13333 12.0384C4.25862 13.0134 5.67792 13.5836 7.16499 13.6582C8.65206 13.7328 10.1213 13.3074 11.3385 12.4499C12.5557 11.5924 13.4508 10.352 13.8811 8.92664C14.3114 7.50124 14.2522 5.97281 13.7128 4.585C13.1735 3.19718 12.1851 2.02986 10.9051 1.26912C9.62521 0.508373 8.12746 0.197994 6.65062 0.387453C5.17379 0.576913 3.80288 1.25531 2.75644 2.3145C1.70999 3.37369 1.04824 4.7527 0.876664 6.23172C0.283331 9.24839 0.289997 12.8434 1.65 16.0651C3.08666 19.4651 5.985 22.3317 10.9333 23.6267C11.0927 23.6701 11.259 23.6814 11.4228 23.6601C11.5866 23.6387 11.7445 23.5852 11.8874 23.5025C12.0303 23.4198 12.1555 23.3095 12.2556 23.1782C12.3557 23.0468 12.4288 22.897 12.4706 22.7372C12.5124 22.5775 12.5222 22.411 12.4993 22.2474C12.4765 22.0839 12.4214 21.9265 12.3374 21.7843C12.2533 21.6422 12.1419 21.5181 12.0096 21.4192C11.8774 21.3204 11.7268 21.2487 11.5667 21.2084C7.34833 20.1034 5.08 17.7584 3.95333 15.0917C3.54698 14.1144 3.27127 13.0878 3.13333 12.0384V12.0384Z" fill="url(#paint0_linear_1_1808)"/>
<defs>
<linearGradient id="paint0_linear_1_1808" x1="0.500834" y1="0.333252" x2="20.8527" y2="12.25" gradientUnits="userSpaceOnUse">
<stop stop-color="#AE7C1E"/>
<stop offset="1" stop-color="#EFBF04"/>
</linearGradient>
</defs>
</svg>
