<svg width="15" height="24" viewBox="0 0 15 24" fill="none" xmlns="http://www.w3.org/2000/svg">
<path d="M11.8666 12.0383C10.7413 13.0133 9.32202 13.5835 7.83495 13.6581C6.34788 13.7327 4.87865 13.3073 3.66145 12.4498C2.44425 11.5922 1.54915 10.3519 1.11884 8.92652C0.688525 7.50112 0.747766 5.97269 1.28712 4.58488C1.82647 3.19706 2.81489 2.02974 4.09481 1.269C5.37473 0.508251 6.87248 0.197872 8.34932 0.387331C9.82615 0.576791 11.1971 1.25518 12.2435 2.31437C13.29 3.37356 13.9517 4.75258 14.1233 6.2316C14.7166 9.24826 14.7099 12.8433 13.3499 16.0649C11.9133 19.4649 9.01494 22.3316 4.06661 23.6266C3.90726 23.6699 3.74089 23.6813 3.57714 23.6599C3.41338 23.6386 3.25547 23.585 3.11253 23.5023C2.96959 23.4196 2.84446 23.3094 2.74436 23.1781C2.64427 23.0467 2.57119 22.8968 2.52935 22.7371C2.48751 22.5773 2.47774 22.4109 2.50061 22.2473C2.52348 22.0838 2.57853 21.9264 2.66258 21.7842C2.74662 21.6421 2.85801 21.518 2.99029 21.4191C3.12258 21.3203 3.27314 21.2486 3.43328 21.2083C7.65161 20.1033 9.91994 17.7583 11.0466 15.0916C11.453 14.1143 11.7287 13.0877 11.8666 12.0383V12.0383Z" fill="url(#paint0_linear_1_1805)"/>
<defs>
<linearGradient id="paint0_linear_1_1805" x1="14.4991" y1="0.33313" x2="-5.85278" y2="12.2498" gradientUnits="userSpaceOnUse">
<stop stop-color="#AE7C1E"/>
<stop offset="1" stop-color="#EFBF04"/>
</linearGradient>
</defs>
</svg>
